<?xml version="1.0" standalone="no"?>
<!DOCTYPE svg PUBLIC "-//W3C//DTD SVG 20010904//EN"
 "http://www.w3.org/TR/2001/REC-SVG-20010904/DTD/svg10.dtd">
<svg version="1.0" xmlns="http://www.w3.org/2000/svg"
 width="270.000000pt" height="270.000000pt" viewBox="0 0 270.000000 270.000000"
 preserveAspectRatio="xMidYMid meet">
<metadata>
Created by potrace 1.14, written by Peter Selinger 2001-2017
</metadata>
<g transform="translate(0.000000,270.000000) scale(0.100000,-0.100000)"
fill="#000000" stroke="none">
<path d="M1257 2373 c-24 -6 -63 -78 -76 -143 -14 -63 -13 -230 1 -310 5 -30
13 -82 19 -115 6 -32 14 -64 19 -71 13 -15 1 -25 -19 -15 -35 19 -160 43 -226
45 -177 5 -324 -72 -409 -218 -66 -111 -75 -223 -26 -339 61 -147 185 -228
385 -252 28 -3 61 -8 75 -10 14 -3 43 -8 65 -11 99 -15 183 -60 225 -121 45
-66 60 -136 56 -257 -2 -61 -8 -122 -13 -136 -6 -14 -14 -50 -18 -80 l-7 -55
35 51 c76 110 115 212 148 388 l22 118 61 -7 c103 -13 171 -10 246 8 246 59
396 186 469 398 28 79 28 148 1 235 -56 183 -145 258 -351 297 -102 19 -259
10 -340 -18 -21 -8 -40 -11 -42 -8 -17 16 176 229 277 306 45 34 92 72 106 84
14 13 30 23 37 23 15 0 2 35 -36 93 -23 36 -27 38 -60 32 -63 -12 -159 -69
-258 -153 -42 -36 -53 -41 -53 -26 0 17 33 83 70 142 21 31 6 50 -66 88 -74
39 -93 34 -128 -33 -22 -43 -37 -51 -30 -16 4 20 0 33 -13 44 -16 15 -109 51
-122 48 -3 -1 -14 -3 -24 -6z"/>
</g>
</svg>
