<?xml version="1.0" standalone="no"?>
<!DOCTYPE svg PUBLIC "-//W3C//DTD SVG 20010904//EN"
 "http://www.w3.org/TR/2001/REC-SVG-20010904/DTD/svg10.dtd">
<svg version="1.0" xmlns="http://www.w3.org/2000/svg"
 width="70.000000pt" height="70.000000pt" viewBox="0 0 70.000000 70.000000"
 preserveAspectRatio="xMidYMid meet">
<metadata>
Created by potrace 1.11, written by Peter Selinger 2001-2013
</metadata>
<g transform="translate(0.000000,70.000000) scale(0.100000,-0.100000)"
fill="#000000" stroke="none">
<path d="M0 350 l0 -350 350 0 350 0 0 350 0 350 -350 0 -350 0 0 -350z m433
236 c52 -22 72 -51 72 -108 0 -43 -4 -53 -33 -79 -22 -20 -27 -29 -16 -29 8 0
29 -13 45 -29 58 -59 27 -146 -62 -171 -18 -6 -82 -10 -141 -10 l-108 0 0 220
0 220 105 0 c67 0 118 -5 138 -14z"/>
<path d="M283 473 l2 -68 38 -3 c57 -5 87 19 87 68 0 48 -27 70 -87 70 l-42 0
2 -67z"/>
<path d="M282 283 l3 -58 57 0 c66 0 101 23 96 64 -4 34 -40 51 -106 51 l-53
0 3 -57z"/>
</g>
</svg>
