<?xml version="1.0" standalone="no"?>
<!DOCTYPE svg PUBLIC "-//W3C//DTD SVG 20010904//EN"
 "http://www.w3.org/TR/2001/REC-SVG-20010904/DTD/svg10.dtd">
<svg version="1.0" xmlns="http://www.w3.org/2000/svg"
 width="70.000000pt" height="70.000000pt" viewBox="0 0 70.000000 70.000000"
 preserveAspectRatio="xMidYMid meet">
<metadata>
Created by potrace 1.11, written by Peter Selinger 2001-2013
</metadata>
<g transform="translate(0.000000,70.000000) scale(0.100000,-0.100000)"
fill="#000000" stroke="none">
<path d="M383 688 c-14 -18 -23 -45 -29 -87 -3 -20 -8 -39 -10 -42 -5 -8 -15
-154 -18 -275 -3 -90 -15 -144 -33 -144 -3 0 -3 46 1 102 6 97 6 104 -14 121
-17 14 -25 15 -35 7 -14 -12 -38 -78 -51 -140 -3 -19 -18 -53 -32 -75 -46 -73
-80 -84 -105 -32 -43 87 20 457 78 457 22 0 29 -19 28 -77 -1 -77 -21 -119
-55 -114 -11 1 -20 -37 -13 -59 15 -48 58 -12 81 68 30 103 24 206 -14 245
-29 29 -58 8 -92 -66 -88 -190 -87 -544 2 -573 32 -10 75 21 103 76 17 33 18
34 26 12 11 -28 35 -28 50 0 l12 22 8 -22 c10 -26 27 -28 45 -4 12 16 13 15
14 -7 0 -35 17 -14 24 29 7 42 35 153 41 158 2 3 1 -27 -2 -65 -4 -45 -1 -84
7 -108 l13 -39 28 32 c25 28 29 29 34 12 13 -40 33 -44 65 -11 l31 30 11 -24
c15 -34 51 -33 74 3 28 41 41 75 36 95 -6 22 -19 22 -27 -2 -9 -30 -44 -56
-56 -44 -8 8 -5 20 12 44 31 44 39 138 14 176 l-18 26 -18 -24 c-20 -26 -29
-61 -33 -132 -3 -46 -32 -97 -56 -97 -16 0 -11 30 9 57 40 50 37 178 -5 178
-25 0 -44 -42 -51 -113 -5 -61 -20 -112 -33 -112 -9 0 -8 15 5 151 9 88 -6
114 -30 55 -18 -43 -30 -48 -20 -8 9 36 13 58 21 107 3 22 9 58 13 80 9 48 7
137 -3 154 -9 14 -21 14 -33 -1z m2 -207 c-10 -64 -22 -120 -27 -126 -6 -6 -7
-5 -4 5 2 8 7 51 10 95 3 44 10 95 15 113 10 34 10 35 12 55 1 6 3 4 6 -7 3
-10 -3 -70 -12 -135z m131 -223 c-6 -15 -14 -28 -18 -28 -11 0 -10 34 3 67 10
25 12 26 18 8 4 -10 3 -32 -3 -47z m108 11 c-10 -34 -35 -53 -29 -22 14 71 16
76 27 65 8 -8 8 -22 2 -43z m-359 14 c-2 -16 -7 -54 -10 -85 -6 -58 -24 -89
-26 -46 -3 75 13 158 32 158 4 0 7 -12 4 -27z"/>
</g>
</svg>
