<svg xmlns="http://www.w3.org/2000/svg">
    <symbol id="logo" viewBox="0 0 241 54"> 
         <path  d="M237.919,101.4l28.619-.252-20.555-35.19-16.792,29.93-4.52.04,19.305-33.566-3.229-5.527L215,101.6l17.439-.153L246.08,77.136l10.81,18.508-16.649.146Zm44.757,5.589L251.367,53.225l0.37-.219,31.31,53.763Zm2.808-33.178V73.759a9.528,9.528,0,0,1,19.055-.052v0.052A9.528,9.528,0,0,1,285.484,73.811Zm14.051,0V73.759a4.672,4.672,0,0,0-4.549-4.912,4.582,4.582,0,0,0-4.473,4.859v0.052a4.667,4.667,0,0,0,4.524,4.912A4.586,4.586,0,0,0,299.535,73.811Zm10.089-9.147H314.2l7.278,9.615V64.664h4.852V82.854h-4.3l-7.556-9.979v9.979h-4.852V64.664Zm26.691,4.418h-5.307V64.664h15.517v4.418h-5.307V82.854h-4.9V69.081Zm14.99-4.418h4.929V82.854h-4.929V64.664Zm10.086,9.147V73.759a9.216,9.216,0,0,1,9.325-9.459,8.589,8.589,0,0,1,7.506,3.794l-3.69,2.936a4.7,4.7,0,0,0-3.866-2.131c-2.476,0-4.22,2.157-4.22,4.807v0.052c0,2.729,1.744,4.86,4.22,4.86a4.8,4.8,0,0,0,3.993-2.209l3.69,2.7a8.857,8.857,0,0,1-7.835,4.106A9.112,9.112,0,0,1,361.391,73.811Zm21.586-9.147h14.229v4.288H387.83v2.754h8.491v3.976H387.83v2.885h9.5v4.288H382.977V64.664Zm19.388,0h4.9V78.437h8.567v4.418h-13.47V64.664Zm18.1,0h4.9V78.437h8.568v4.418h-13.47V64.664Zm16.481,9.147V73.759A9.528,9.528,0,0,1,456,73.707v0.052A9.528,9.528,0,0,1,436.945,73.811Zm14.051,0V73.759a4.672,4.672,0,0,0-4.549-4.912,4.582,4.582,0,0,0-4.473,4.859v0.052a4.667,4.667,0,0,0,4.524,4.912A4.586,4.586,0,0,0,451,73.811ZM266.424,78.482V72.459l4.5,7.069h0.1l4.524-7.121V82.854h4.877V64.664h-5.181l-4.22,7.042-4.22-7.042h-5.181v5.574Zm20.07,14.225h0.678v6.061h-0.678V92.707Zm5.875,0h0.636l3.786,4.857V92.707h0.661v6.061h-0.541L293.03,93.8v4.97h-0.661V92.707Zm11.811,0.631h-2.018V92.707h4.722v0.631h-2.018v5.429H304.18V93.338Zm7.414-.631h4.345V93.33h-3.666V95.4h3.279v0.623h-3.279v2.121h3.708v0.624h-4.387V92.707Zm9.191,0h2.585a2.358,2.358,0,0,1,1.708.606,1.685,1.685,0,0,1,.463,1.194v0.017a1.767,1.767,0,0,1-1.63,1.766l1.845,2.477h-0.833l-1.742-2.355h-1.717v2.355h-0.679V92.707Zm2.524,3.091a1.335,1.335,0,0,0,1.545-1.246V94.533a1.279,1.279,0,0,0-1.536-1.2h-1.854V95.8h1.845Zm7.123-3.091h0.636l3.786,4.857V92.707h0.661v6.061h-0.541l-3.881-4.97v4.97h-0.661V92.707Zm12.446-.044h0.635l2.739,6.1h-0.73l-0.7-1.6h-3.271l-0.713,1.6h-0.695Zm1.674,3.888-1.365-3.092-1.374,3.092h2.739Zm7.14-3.213h-2.018V92.707H354.4v0.631h-2.018v5.429h-0.686V93.338Zm7.475-.631h0.677v6.061h-0.677V92.707Zm5.609,3.047V95.737a3.066,3.066,0,1,1,6.13-.018v0.018A3.066,3.066,0,1,1,364.776,95.754Zm5.426,0V95.737a2.4,2.4,0,0,0-2.37-2.5,2.372,2.372,0,0,0-2.352,2.485v0.018a2.4,2.4,0,0,0,2.37,2.5A2.372,2.372,0,0,0,370.2,95.754Zm5.577-3.047h0.636l3.786,4.857V92.707h0.661v6.061h-0.541L376.44,93.8v4.97h-0.661V92.707Zm12.446-.044h0.636l2.738,6.1H390.87l-0.7-1.6H386.9l-0.713,1.6h-0.695Zm1.675,3.888-1.366-3.092-1.373,3.092H389.9Zm6.324-3.844H396.9v5.428h3.382v0.633h-4.061V92.707Zm14.5,3.047V95.737a3.03,3.03,0,0,1,3.013-3.135,3.146,3.146,0,0,1,2.24.806l-0.437.519a2.549,2.549,0,0,0-1.828-.692,2.359,2.359,0,0,0-2.285,2.485v0.018a2.334,2.334,0,0,0,2.379,2.519,2.817,2.817,0,0,0,1.734-.606V96.143h-1.828V95.529h2.48v2.415a3.621,3.621,0,0,1-2.413.926A2.959,2.959,0,0,1,410.725,95.754Zm10.436-3.047h2.585a2.358,2.358,0,0,1,1.708.606,1.682,1.682,0,0,1,.464,1.194v0.017a1.767,1.767,0,0,1-1.631,1.766l1.845,2.477H425.3l-1.742-2.355H421.84v2.355h-0.679V92.707Zm2.524,3.091a1.336,1.336,0,0,0,1.546-1.246V94.533a1.28,1.28,0,0,0-1.537-1.2H421.84V95.8h1.845Zm6.857-.044V95.737a3.065,3.065,0,1,1,6.129-.018v0.018A3.065,3.065,0,1,1,430.542,95.754Zm5.425,0V95.737a2.4,2.4,0,0,0-2.369-2.5,2.372,2.372,0,0,0-2.353,2.485v0.018a2.4,2.4,0,0,0,2.37,2.5A2.372,2.372,0,0,0,435.967,95.754Zm5.484,0.476V92.707h0.678v3.48a1.777,1.777,0,0,0,1.837,2.043,1.736,1.736,0,0,0,1.812-2V92.707h0.678v3.472A2.507,2.507,0,1,1,441.451,96.231Zm10.05-3.523h2.25A1.961,1.961,0,0,1,456,94.629v0.017a2.078,2.078,0,0,1-2.361,1.983H452.18v2.139H451.5V92.707Zm2.164,3.3a1.429,1.429,0,0,0,1.648-1.334V94.655a1.362,1.362,0,0,0-1.614-1.316H452.18V96h1.485Z" transform="translate(-215 -53)"/>
	</symbol>



    <symbol id="arrow"  viewBox="0 0 612 612"> 
   
       <path d="M306,0C136.992,0,0,136.992,0,306s136.992,306,306,306c168.988,0,306-136.992,306-306S475.008,0,306,0z M306,573.75
				C158.125,573.75,38.25,453.875,38.25,306C38.25,158.125,158.125,38.25,306,38.25c147.875,0,267.75,119.875,267.75,267.75
				C573.75,453.875,453.875,573.75,306,573.75z M392.751,142.749c-7.478-7.478-19.584-7.478-27.043,0l-146.44,146.44
				c-4.59,4.59-6.005,10.863-4.953,16.811c-1.052,5.929,0.382,12.221,4.953,16.811l146.44,146.44c7.479,7.459,19.584,7.459,27.043,0
				c7.478-7.478,7.478-19.584,0-27.043L256.543,306l136.188-136.189C400.21,162.333,400.21,150.227,392.751,142.749z"/>
	</symbol>
<!--

    <symbol id="f" viewBox="0 0 40 40"> 
 
        <path fill-rule="evenodd"  fill="rgb(60, 60, 60)"
        d="M76.888,91.000 L2.081,91.000 C0.920,91.000 -0.011,90.075 -0.011,88.921 L-0.011,13.483 C-0.011,12.340 0.920,11.405 2.081,11.405 L22.548,11.405 C22.767,8.224 25.435,5.719 28.679,5.719 L34.673,5.719 C34.705,2.570 37.300,0.013 40.480,0.013 C43.670,0.013 46.254,2.570 46.296,5.719 L52.281,5.719 C55.534,5.719 58.202,8.224 58.422,11.405 L76.888,11.405 C78.049,11.405 78.981,12.340 78.981,13.483 L78.981,88.921 C78.981,90.075 78.049,91.000 76.888,91.000 ZM54.259,11.842 C54.259,10.761 53.381,9.877 52.282,9.877 L45.743,9.877 C43.745,9.877 42.113,8.257 42.113,6.271 L42.113,5.793 C42.113,4.899 41.380,4.171 40.481,4.171 C39.591,4.171 38.859,4.899 38.859,5.793 L38.859,6.271 C38.859,8.255 37.226,9.877 35.218,9.877 L28.679,9.877 C27.591,9.877 26.711,10.761 26.711,11.842 L26.713,11.842 L26.713,16.103 L54.259,16.103 L54.259,11.842 ZM74.794,15.562 L58.441,15.562 L58.441,18.181 C58.441,19.335 57.510,20.260 56.349,20.260 L24.618,20.260 C23.457,20.260 22.526,19.335 22.526,18.181 L22.526,15.562 L4.173,15.562 L4.173,86.843 L74.794,86.843 L74.794,15.562 ZM19.768,32.375 L21.757,34.350 L26.843,29.298 C27.455,28.689 28.449,28.689 29.062,29.298 C29.675,29.906 29.675,30.894 29.062,31.503 L22.867,37.657 C22.559,37.962 22.157,38.114 21.756,38.114 C21.354,38.114 20.953,37.962 20.647,37.657 L17.549,34.580 C16.937,33.971 16.937,32.984 17.549,32.375 C18.162,31.766 19.155,31.766 19.768,32.375 ZM19.768,45.715 L21.757,47.689 L26.843,42.638 C27.455,42.029 28.449,42.029 29.062,42.638 C29.676,43.246 29.675,44.234 29.062,44.843 L22.867,50.997 C22.559,51.302 22.157,51.454 21.756,51.454 C21.354,51.454 20.953,51.301 20.647,50.997 L17.549,47.920 C16.937,47.311 16.937,46.324 17.549,45.715 C18.162,45.106 19.155,45.106 19.768,45.715 ZM19.768,59.055 L21.757,61.031 L26.843,55.979 C27.455,55.370 28.449,55.370 29.062,55.979 C29.675,56.588 29.675,57.575 29.062,58.184 L22.867,64.339 C22.559,64.643 22.157,64.794 21.756,64.794 C21.354,64.794 20.953,64.642 20.647,64.338 L17.549,61.261 C16.937,60.652 16.937,59.664 17.549,59.055 C18.162,58.447 19.155,58.447 19.768,59.055 ZM19.768,72.397 L21.757,74.373 L26.843,69.321 C27.455,68.712 28.449,68.712 29.062,69.321 C29.676,69.930 29.675,70.917 29.062,71.526 L22.867,77.680 C22.559,77.984 22.157,78.137 21.756,78.137 C21.354,78.137 20.953,77.984 20.647,77.680 L17.549,74.602 C16.937,73.993 16.937,73.006 17.549,72.397 C18.162,71.789 19.155,71.789 19.768,72.397 ZM35.637,31.919 L54.311,31.919 C55.177,31.919 55.880,32.617 55.880,33.478 C55.880,34.339 55.178,35.037 54.311,35.037 L35.637,35.037 C34.771,35.037 34.068,34.339 34.068,33.478 C34.068,32.617 34.771,31.919 35.637,31.919 ZM35.637,45.260 L54.311,45.260 C55.177,45.260 55.880,45.958 55.880,46.819 C55.880,47.680 55.178,48.378 54.311,48.378 L35.637,48.378 C34.771,48.378 34.068,47.680 34.068,46.819 C34.068,45.958 34.771,45.260 35.637,45.260 ZM35.637,58.600 L54.311,58.600 C55.177,58.600 55.880,59.297 55.880,60.159 C55.880,61.020 55.178,61.717 54.311,61.717 L35.637,61.717 C34.771,61.717 34.068,61.020 34.068,60.159 C34.068,59.297 34.771,58.600 35.637,58.600 ZM35.637,71.940 L54.311,71.940 C55.177,71.940 55.880,72.638 55.880,73.499 C55.880,74.360 55.178,75.058 54.311,75.058 L35.637,75.058 C34.771,75.058 34.068,74.360 34.068,73.499 C34.068,72.638 34.771,71.940 35.637,71.940 ZM40.485,10.140 C41.595,10.140 42.494,11.034 42.494,12.137 C42.494,13.239 41.595,14.133 40.485,14.133 C39.375,14.133 38.475,13.239 38.475,12.137 C38.475,11.034 39.375,10.140 40.485,10.140 Z"/>
        
    </symbol> -->

</svg>