<?xml version="1.0" standalone="no"?>
<!DOCTYPE svg PUBLIC "-//W3C//DTD SVG 20010904//EN"
 "http://www.w3.org/TR/2001/REC-SVG-20010904/DTD/svg10.dtd">
<svg version="1.0" xmlns="http://www.w3.org/2000/svg"
 width="270.000000pt" height="270.000000pt" viewBox="0 0 270.000000 270.000000"
 preserveAspectRatio="xMidYMid meet">
<metadata>
Created by potrace 1.14, written by Peter Selinger 2001-2017
</metadata>
<g transform="translate(0.000000,270.000000) scale(0.100000,-0.100000)"
fill="#000000" stroke="none">
<path d="M1314 2463 c-15 -27 -42 -73 -59 -103 -36 -60 -338 -587 -365 -636
-10 -16 -51 -88 -92 -160 -41 -71 -155 -268 -253 -439 -98 -171 -181 -314
-185 -320 -4 -5 -19 -31 -33 -56 -14 -26 -93 -165 -176 -308 -96 -167 -146
-263 -138 -266 12 -4 334 0 352 5 6 1 12 1 15 0 21 -8 40 -6 40 3 0 9 2 9 8 1
8 -13 42 -15 42 -3 0 5 11 4 25 -1 17 -7 25 -6 25 1 0 7 6 6 17 -2 20 -17 16
-17 36 0 12 9 17 10 17 2 0 -8 5 -9 18 -2 13 7 23 6 30 -1 7 -7 12 -8 12 -2 0
13 93 13 102 -1 5 -6 8 -4 8 5 0 13 1 13 10 0 5 -8 10 -10 10 -5 0 6 26 10 61
10 33 0 64 2 68 5 5 3 19 23 31 45 12 22 95 168 183 325 88 157 234 418 324
580 91 162 170 300 175 305 7 7 12 6 15 -1 2 -6 127 -222 278 -480 150 -258
272 -470 271 -472 -2 -2 -196 -4 -430 -6 -235 -2 -431 -7 -435 -12 -7 -8 -84
-189 -112 -262 l-9 -23 742 6 c408 3 744 8 746 10 4 4 -28 61 -578 1000 -199
341 -373 638 -385 660 -110 193 -101 184 -131 130 -19 -34 -64 -115 -154 -275
-48 -85 -224 -398 -390 -695 -166 -297 -304 -542 -306 -544 -5 -5 -234 -9
-234 -4 0 4 365 641 520 908 48 83 98 170 112 195 31 54 147 257 274 477 52
90 94 168 94 174 0 14 -153 278 -162 279 -4 0 -19 -21 -34 -47z"/>
</g>
</svg>
