<svg xmlns="http://www.w3.org/2000/svg">
    <symbol id="logo" viewBox="0 0 53.531 72"> 
         <path id="Logo" class="cls-1" d="M274.714,88.981A46.989,46.989,0,0,1,271.3,103.7c-0.623,1.416-1.756,2.767-2.279,4.3h-0.228v-1.132c0.428-.665.219-1.575,0.456-2.491,1.128-4.357,1.213-10.17-.684-13.811-3.24-6.221-9.728-4.129-16.181-6.793a12.425,12.425,0,0,1-5.7-5.434l-1.368-3.849A14.911,14.911,0,0,1,246,66.339c3.107-8.131,10.872-11.709,20.284-7.245V58.415c-0.807-1.1-.545-2.733-0.912-4.3-0.985-4.219-1.744-18.067,2.963-18.113,1.277,0.926,3.731.885,3.875,2.944a1.666,1.666,0,0,0-.456,1.358h0.228V40.075c0.981-1.03,1.25-3.371,2.963-3.623,1.368,1.22,3.683,1.463,4.1,3.623a17.49,17.49,0,0,0-2.735,5.887h0.456c1.428-1.877,7.312-7.251,10.028-6.793a14.113,14.113,0,0,1,2.051,4.3c-1.435.51-2.095,1.9-3.191,2.717-4,3-7.231,7.374-9.8,11.774h0.684c1.569-1.22,7.973-1.811,10.712-1.132,7.222,1.792,9.252,4.271,10.939,11.547a13.388,13.388,0,0,1,.228,4.755c-2.183,9.442-6.79,14.209-16.409,16.3C279.436,89.993,276.873,89.1,274.714,88.981Z" transform="translate(-245 -36)"/>
	</symbol>


    <symbol id="facebook"  viewBox="0 0 32 32"> 
            <path 
                  d="M16.000,32.000 C7.164,32.000 0.000,24.837 0.000,16.000 C0.000,7.164 7.164,0.000 16.000,0.000 C24.837,0.000 32.000,7.164 32.000,16.000 C32.000,24.837 24.837,32.000 16.000,32.000 ZM20.000,10.000
                   L22.000,10.000 L22.000,6.000 C22.000,6.000 22.000,6.000 18.126,6.000 C14.252,6.000 15.000,10.000 15.000,10.000 L15.000,13.000 L13.000,13.000 L13.000,17.000 L15.000,17.000 L15.000,26.000
                  L19.000,26.000 L19.000,17.000 L21.000,17.000 L22.000,13.000 L19.000,13.000 C19.000,13.000 19.000,11.820 19.000,11.000 C19.000,10.179 20.000,10.000 20.000,10.000 Z"/>
    </symbol> 

    <!-- <symbol id="google_" viewBox="0 0 32 32"> 
      <path  d="M1179,4337a16.005,16.005,0,1,1-16,16A16,16,0,0,1,1179,4337Zm-1.35,7.27a6,6,0,0,1,2.43,4.78c0,2.62-1.43,3.86-2.87,5.03a2.538,2.538,0,0,0-.96,1.74,1.947,1.947,0,0,0,.89,1.52l1.23,1c1.51,1.31,2.88,2.51,2.88,4.96,0,3.33-3.12,6.7-9,6.7-4.96,0-7.36-2.45-7.36-5.07a5.127,5.127,0,0,1,2.64-4.32c2.12-1.35,4.99-1.53,6.53-1.63a3.8,3.8,0,0,1-1.02-2.41,3.306,3.306,0,0,1,.34-1.39,10.655,10.655,0,0,1-1.1.07,5.507,5.507,0,0,1-5.68-5.56,6.471,6.471,0,0,1,2.19-4.75,9.1,9.1,0,0,1,6.13-1.95h7.04l-2.18,1.28h-2.13Zm-2.42,15.73a6.445,6.445,0,0,0-.79-0.03,13.082,13.082,0,0,0-3.59.57,3.926,3.926,0,0,0-2.95,3.65c0,2.51,2.37,4.32,6.03,4.32,3.28,0,5.02-1.63,5.02-3.83,0-1.81-1.12-2.76-3.72-4.68h0Zm0.99-6.73a3.7,3.7,0,0,0,.85-2.59c0-2.55-1.47-6.52-4.31-6.52a3.146,3.146,0,0,0-2.39,1.17,4.2,4.2,0,0,0-.76,2.62c0,2.38,1.34,6.31,4.28,6.31a3.428,3.428,0,0,0,2.33-.99h0Zm8.69-10.27h2v8h-2v-8Zm-3,3h8v2h-8v-2Z" transform="translate(-1163 -4337)"/>
    </symbol>  -->

    <symbol id="google_2" viewBox="0 0 242.667 242.667"> 
   <path d="M129.354,162.621c0.232,7.688-3.708,12.7-9.958,16.225c-11.037,6.226-30.251,4.627-40.275-3.192
	c-10.915-8.515-10.072-23.704,1.718-30.935c5.375-3.296,13.214-5.159,22.29-5.297C115.156,139.24,129.022,151.618,129.354,162.621z
	 M108.24,107.858c7.22-2.377,11.556-8.71,11.695-17.444c-0.976-10.042-3.474-19.88-11.331-27.433
	c-4.962-4.771-10.998-6.567-17.643-4.444c-6.252,1.998-9.23,6.925-10.163,13.21c-1.637,11.036,1.119,20.976,7.813,29.785
	C93.618,108.12,100.809,110.305,108.24,107.858z M242.667,0v242.667H0V0H242.667z M132.656,135.103
	c-4.336-3.707-8.891-7.167-13.117-10.992c-5.295-4.792-5.237-9.213-0.013-14.113c1.955-1.833,4.172-3.384,6.241-5.098
	c13.037-10.803,14.531-28.871,3.495-41.711c-0.941-1.095-2.416-1.859-2.61-4.246c4.489,0.417,8.686-0.269,11.469-4.248
	c0.736-1.052,2.523-1.731,1.995-3.201c-0.562-1.564-2.338-0.931-3.583-0.935c-11.591-0.039-23.182,0.04-34.773-0.018
	c-5.287-0.026-10.335,1.025-15.286,2.762c-15.421,5.411-24.825,20.305-22.727,36.274c1.686,12.833,12.949,26.054,30.663,25.77
	c3.188-0.051,4.146,1.11,3.605,4.22c-0.525,3.021-0.282,6.127,1.544,8.735c2.471,3.529,1.668,4.652-2.595,5.131
	c-10.916,1.226-21.574,3.606-30.781,10.11c-8.49,5.998-12.952,14.141-11.55,24.638c1.363,10.209,8.189,16.218,17.214,19.986
	c10.537,4.399,21.585,4.731,32.705,3.323c9.114-1.154,17.621-4.056,25.079-9.717C144.742,170.305,148.094,148.3,132.656,135.103z
	 M188.287,113.041h-15.149V97.891h-7.474v15.149h-15.149v7.474h15.149v15.149h7.474v-15.149h15.149V113.041z"/>
    </symbol> 

    <symbol id="linked-in" viewBox="0 0 32 32"> 
          <path  class="cls-1" d="M351,4337a16,16,0,1,1-16,16A16,16,0,0,1,351,4337Zm-8.516,7.46a1.5,1.5,0,0,0-.476,1.11,1.561,1.561,0,0,0,.481,1.15,1.619,1.619,0,0,0,1.164.47,1.571,1.571,0,0,0,1.14-.46,1.571,1.571,0,0,0,0-2.26,1.606,1.606,0,0,0-1.154-.47A1.583,1.583,0,0,0,342.484,4344.46ZM342,4360h3.275v-12.01H342V4360Zm5.73,0h3.258v-4.36a11.65,11.65,0,0,1,.163-2.5,3.244,3.244,0,0,1,1.121-1.74,3.055,3.055,0,0,1,1.936-.63,2.676,2.676,0,0,1,1.461.38,1.988,1.988,0,0,1,.829,1.11,11.424,11.424,0,0,1,.238,2.93V4360H360v-7.56a4,4,0,0,0-1.351-3.22,5.009,5.009,0,0,0-3.5-1.28,5.212,5.212,0,0,0-1.866.34,10.214,10.214,0,0,0-2.274,1.31v-1.6H347.73V4360Z" transform="translate(-335 -4337)"/>
    </symbol> 

    <symbol id="twitter" viewBox="0 0 32 32"> 
         <path  d="M485,4337a16,16,0,1,1-16,16A16,16,0,0,1,485,4337Zm9.9,10.2a6.738,6.738,0,0,1-2.121.64,4.006,4.006,0,0,0,1.623-2.23,7.055,7.055,0,0,1-2.345.98,3.535,3.535,0,0,0-2.7-1.28,3.879,3.879,0,0,0-3.693,4.04,4.417,4.417,0,0,0,.1.92,10.235,10.235,0,0,1-7.613-4.22,4.331,4.331,0,0,0-.5,2.03,4.14,4.14,0,0,0,1.643,3.36,3.452,3.452,0,0,1-1.672-.5c0,0.01,0,.03,0,0.05a3.964,3.964,0,0,0,2.963,3.96,3.483,3.483,0,0,1-.973.14,3.2,3.2,0,0,1-.695-0.07,3.753,3.753,0,0,0,3.45,2.8,6.984,6.984,0,0,1-4.587,1.73,8.526,8.526,0,0,1-.881-0.05,9.857,9.857,0,0,0,5.662,1.81c6.793,0,10.508-6.15,10.508-11.49,0-.18,0-0.35-0.011-0.52a7.818,7.818,0,0,0,1.843-2.1" transform="translate(-469 -4337)"/>
    </symbol> 

    <!-- <symbol id="behance" viewBox="0 0 32 32"> 
         <path  d="M357,4337a16,16,0,1,1-16,16A16,16,0,0,1,357,4337Zm-10,10h5.793c2.344,0,3.929.79,3.929,2.97a2.558,2.558,0,0,1-1.673,2.44,2.879,2.879,0,0,1,2.259,2.97c0,2.37-2.12,3.39-4.344,3.39H347V4347Zm2.475,4.71h2.972a1.4,1.4,0,0,0,1.655-1.39c0-1.12-.9-1.35-1.861-1.35h-2.766v2.74Zm0,5.16H352.6c1.069,0,1.922-.33,1.922-1.54s-0.715-1.67-1.87-1.67h-3.179v3.21Zm10.924-2.04c0.069,1.47.827,2.42,2.188,2.42a2.315,2.315,0,0,0,2.035-1.3h2.154a4.554,4.554,0,0,1-8.851-1.41,4.374,4.374,0,0,1,4.576-4.47c3.034,0,4.5,2.16,4.327,4.76H360.4Zm3.982-1.52c-0.225-1.18-.76-1.48-1.949-1.48-1.551,0-2,.82-2.033,1.48h3.982Zm0.774-3.95h-4.931v-1.57h4.931v1.57Z" transform="translate(-341 -4337)"/>
    </symbol> -->
    <symbol id="behance_1" viewBox="0 0 455 455"> 
     <path style="fill-rule:evenodd;clip-rule:evenodd;" d="M181.289,242.565c-5.597-4.246-13.062-6.358-22.245-6.358h-46.379v53.356
		h45.524c4.211,0,8.205-0.373,11.963-1.214c3.815-0.834,7.199-2.156,10.052-4.11c2.853-1.879,5.216-4.455,6.934-7.731
		c1.724-3.247,2.55-7.465,2.55-12.559C189.688,253.961,186.879,246.873,181.289,242.565z"/>
	<path style="fill-rule:evenodd;clip-rule:evenodd;" d="M174.606,201.654c4.907-3.582,7.286-9.502,7.286-17.621
		c0-4.509-0.79-8.235-2.379-11.126c-1.645-2.892-3.822-5.155-6.574-6.739c-2.73-1.649-5.813-2.788-9.391-3.402
		c-3.513-0.687-7.199-0.956-10.972-0.956h-39.913v45.276h43.168C163.391,207.086,169.649,205.293,174.606,201.654z"/>
	<path style="fill-rule:evenodd;clip-rule:evenodd;" d="M0,0v455h455V0H0z M275.636,141.802h78.54v19.12h-78.54V141.802z
		 M226.605,291.707c-3.793,7.204-8.959,13.041-15.326,17.546c-6.416,4.545-13.788,7.878-22.044,10.048
		c-8.162,2.17-16.64,3.262-25.32,3.262H70V128.804h91.351c9.269,0,17.632,0.801,25.277,2.458c7.602,1.613,14.09,4.304,19.572,7.993
		c5.396,3.69,9.621,8.597,12.645,14.78c2.953,6.09,4.434,13.717,4.434,22.734c0,9.754-2.213,17.901-6.639,24.414
		c-4.462,6.502-11.014,11.838-19.773,15.98c11.927,3.427,20.758,9.463,26.613,18.045c5.885,8.641,8.766,18.979,8.766,31.101
		C232.245,276.134,230.363,284.595,226.605,291.707z M384.755,261.692H283.518c0,11.09,3.75,21.591,9.542,27.227
		c5.769,5.637,14.111,8.471,24.917,8.471c7.774,0,14.492-1.965,20.125-5.881c5.583-3.912,8.981-8.094,10.296-12.437h33.935
		c-5.453,16.888-13.73,28.944-25.018,36.202c-11.158,7.289-24.768,10.921-40.624,10.921c-11.051,0-20.995-1.789-29.926-5.313
		c-8.924-3.568-16.382-8.568-22.654-15.085c-6.115-6.549-10.864-14.287-14.248-23.38c-3.348-9.043-5.037-19.055-5.037-29.905
		c0-10.49,1.753-20.291,5.18-29.348c3.499-9.089,8.335-16.931,14.694-23.509c6.373-6.614,13.931-11.834,22.733-15.645
		c8.802-3.798,18.508-5.709,29.258-5.709c11.869,0,22.266,2.284,31.176,6.937c8.88,4.588,16.159,10.807,21.878,18.592
		c5.719,7.771,9.786,16.659,12.33,26.628C384.597,240.41,385.481,250.807,384.755,261.692z"/>
	<path style="fill-rule:evenodd;clip-rule:evenodd;" d="M315.534,207.398c-6.157,0-11.252,1.035-15.332,3.147
		c-3.988,2.084-7.257,4.677-9.757,7.731c-2.486,3.104-4.182,6.38-5.166,9.883c-0.991,3.413-1.58,6.51-1.76,9.248h62.697
		c-0.92-9.826-4.283-17.09-8.881-22.198C332.757,210.139,324.997,207.398,315.534,207.398z"/>
    </symbol>

    
</svg>









